<svg xmlns="http://www.w3.org/2000/svg" width="464.22" height="402.001" viewBox="0 0 464.22 402.001">
  <g id="_2853457" data-name="2853457" transform="translate(-18.886 -50.042)">
    <g id="Floor">
      <path id="Floor-2" data-name="Floor" d="M85.455,418.008c88.757,45.379,232.662,45.38,321.418,0s88.758-118.954,0-164.333-232.662-45.38-321.419,0S-3.3,372.629,85.455,418.008Z" fill="#f5f5f5"/>
    </g>
    <g id="Shadows">
      <path id="Shadow" d="M375.731,345.512c4.864,2.808,14.424,1.841,21.353-2.159l39.936-23.194c6.928-4,8.593-9.524,3.718-12.338s-14.441-1.85-21.368,2.153l-39.9,23.2C372.539,337.182,370.867,342.7,375.731,345.512Z" fill="#ebebeb"/>
      <path id="Shadow-2" data-name="Shadow" d="M135.311,366.9l-40.62-23.453L135.311,320Z" fill="#ebebeb"/>
      <path id="Shadow-3" data-name="Shadow" d="M250.119,380.932l-65.47-37.824,65.486-37.75Z" fill="#ebebeb"/>
    </g>
    <g id="Plants">
      <g id="Plants-2" data-name="Plants">
        <g id="Group_265" data-name="Group 265">
          <g id="Group_263" data-name="Group 263">
            <path id="Path_1582" data-name="Path 1582" d="M80.361,312.066c.114-9.5-6.521-29.263-16.232-41.718s-25.1-21.662-36.16-18.028c-10.3,3.385-9.349,16.853,2.987,25.918s30.905,20.49,36.191,35.967L78.4,333.253Z" fill="#772f92"/>
            <path id="Path_1583" data-name="Path 1583" d="M80.361,312.066c.114-9.5-6.521-29.263-16.232-41.718s-25.1-21.662-36.16-18.028c-10.3,3.385-9.349,16.853,2.987,25.918s30.905,20.49,36.191,35.967L78.4,333.253Z" fill="#772f92" opacity="0.1"/>
          </g>
          <g id="Group_264" data-name="Group 264">
            <path id="Path_1584" data-name="Path 1584" d="M80.906,325.076a.7.7,0,0,1-.619-.566C74.315,292,48.4,265.323,32.761,259.31a.7.7,0,0,1-.4-.9.687.687,0,0,1,.9-.4c15.931,6.127,42.33,33.243,48.393,66.245a.694.694,0,0,1-.557.808A.676.676,0,0,1,80.906,325.076Z" fill="#fff"/>
          </g>
        </g>
        <g id="Group_268" data-name="Group 268">
          <g id="Group_266" data-name="Group 266">
            <path id="Path_1585" data-name="Path 1585" d="M75.82,345.778c-1.463-5.359-7.88-14.251-18.343-21.658-11.575-8.194-26.3-12.075-29.631-18.384-4-7.579,2.432-14.617,14.4-12.987s32.855,18.243,35.928,42.912Z" fill="#772f92"/>
          </g>
          <g id="Group_267" data-name="Group 267">
            <path id="Path_1586" data-name="Path 1586" d="M78.207,340.2a.7.7,0,0,1-.593-.466c-9.612-27.9-30.693-37.912-40.5-39.3a.7.7,0,0,1-.59-.785.685.685,0,0,1,.785-.59c10.841,1.54,31.8,11.745,41.616,40.228a.7.7,0,0,1-.721.918Z" fill="#fff"/>
          </g>
        </g>
      </g>
      <g id="Plants-3" data-name="Plants">
        <g id="Group_270" data-name="Group 270">
          <path id="Path_1587" data-name="Path 1587" d="M434.925,285.023s1.333-20.031,13.138-34.9,11.079-20.993,2.939-23.995-27.045,14.919-22.838,38.918S434.925,285.023,434.925,285.023Z" fill="#772f92"/>
          <path id="Path_1588" data-name="Path 1588" d="M434.925,285.023s1.333-20.031,13.138-34.9,11.079-20.993,2.939-23.995-27.045,14.919-22.838,38.918S434.925,285.023,434.925,285.023Z" fill="#772f92" opacity="0.1"/>
          <g id="Group_269" data-name="Group 269">
            <path id="Path_1589" data-name="Path 1589" d="M431.319,273.581a.464.464,0,0,1-.464-.436c-1.379-22.059,14.2-40.158,20.031-44.254a.465.465,0,0,1,.534.761c-5.717,4.017-20.991,21.772-19.637,43.435a.466.466,0,0,1-.435.494Z" fill="#fff"/>
          </g>
        </g>
        <g id="Group_273" data-name="Group 273">
          <g id="Group_272" data-name="Group 272">
            <path id="Path_1590" data-name="Path 1590" d="M431.716,301.565a105.679,105.679,0,0,0,16.255,3.912c9.141,1.448,13.175-2.924,13.175-2.924s-3.6-8.573-8.79-10.979a51.009,51.009,0,0,1,15.865,6.508s5.582.084,7.8-8.435c0,0-3.308-5.127-14.4-7.9,0,0,6.751-1.7,16.479.782.73.29,3.839-10.725,4.78-15.807s-1.1-5.028-5.063-6.086-17.084-4.005-19.564-1.826-3.74,9.63-3.74,9.63a17.567,17.567,0,0,1-.372-9.443s-3.565-1.394-9.1.216c-4.525,1.316-4.746,4.4-4.541,7.876a34.02,34.02,0,0,0,1.959,8.836s-3.528-4.522-3.637-14.325c0,0-9.261,4.6-10.842,13.793C427.127,280.365,425.915,294.962,431.716,301.565Z" fill="#772f92"/>
            <g id="Group_271" data-name="Group 271">
              <path id="Path_1591" data-name="Path 1591" d="M433.462,299.777a.513.513,0,0,0,.463-.291c7.377-15.325,34.8-33.133,44.626-35.043a.515.515,0,1,0-.2-1.01c-9.985,1.942-37.861,20.037-45.354,35.608a.511.511,0,0,0,.24.685A.5.5,0,0,0,433.462,299.777Z" fill="#fff"/>
            </g>
          </g>
        </g>
      </g>
    </g>
    <g id="Computer_Screen" data-name="Computer Screen">
      <g id="Group_278" data-name="Group 278">
        <g id="Group_276" data-name="Group 276">
          <g id="Path_1592" data-name="Path 1592" fill="#fafafa" stroke-miterlimit="10">
            <path d="M 76.78077697753906 352.8637390136719 C 76.78071594238281 352.8637390136719 76.78067779541016 352.8637390136719 76.78061676025391 352.8637390136719 C 75.64680480957031 352.8636474609375 74.96992492675781 351.9265441894531 74.96992492675781 350.3569946289063 L 74.96992492675781 182.1486968994141 L 280.9630737304688 63.21710205078125 L 280.965087890625 230.7500152587891 C 280.965087890625 231.9842834472656 280.5424194335938 233.3959655761719 279.7749633789063 234.7250061035156 C 279.0075073242188 236.0541229248047 277.9958801269531 237.1260833740234 276.9265441894531 237.7434692382813 L 78.42253875732422 352.3504638671875 C 77.84095764160156 352.6862487792969 77.27323150634766 352.8637390136719 76.78077697753906 352.8637390136719 Z" stroke="none"/>
            <path d="M 76.78076934814453 353.4486389160156 L 76.78076934814453 352.27880859375 C 77.17069244384766 352.27880859375 77.63730621337891 352.12841796875 78.13007354736328 351.8439331054688 L 276.6341247558594 237.2369384765625 C 278.6647033691406 236.0645904541016 280.3801879882813 233.0939331054688 280.3801879882813 230.7500152587891 L 280.3782043457031 64.23017883300781 L 75.5548095703125 182.4864044189453 L 75.5548095703125 350.3569946289063 C 75.5548095703125 351.0259704589844 75.70030975341797 351.5766906738281 75.96450042724609 351.9077758789063 C 76.16368865966797 352.1574401855469 76.43065643310547 352.2787780761719 76.78065490722656 352.27880859375 L 76.78076934814453 353.4486389160156 M 76.78059387207031 353.4486389160156 C 75.36016082763672 353.4485473632813 74.38500213623047 352.3160705566406 74.38500213623047 350.3569946289063 L 74.38500213623047 181.8110046386719 L 281.5480041503906 62.20401000976563 L 281.5499877929688 230.7500152587891 C 281.5499877929688 233.5110015869141 279.6109924316406 236.8690032958984 277.218994140625 238.2500152587891 L 78.71499633789063 352.8569946289063 C 78.01962280273438 353.2584838867188 77.36277770996094 353.4486694335938 76.78059387207031 353.4486389160156 Z" stroke="none" fill="#e0e0e0"/>
          </g>
          <path id="Path_1593" data-name="Path 1593" d="M74.385,181.811v28.144L281.547,90.35V62.2Z" fill="#772f92"/>
          <path id="Path_1594" data-name="Path 1594" d="M90.632,183.313v4.036c0,.825.585,1.162,1.3.75l63.692-36.773V144.29L91.931,181.063A2.88,2.88,0,0,0,90.632,183.313Z" fill="#fafafa"/>
          <path id="Path_1595" data-name="Path 1595" d="M162.45,140.349c.717-.414,1.3-.078,1.3.75v4.036a2.873,2.873,0,0,1-1.3,2.25l-6.826,3.941V144.29Z" fill="#6e818a"/>
          <path id="Path_1596" data-name="Path 1596" d="M74.385,172.739a9.571,9.571,0,0,1,4.33-7.5l198.5-114.606c2.392-1.38,4.33-.261,4.33,2.5V62.2L74.385,181.811Z" fill="#455a64"/>
          <g id="Group_274" data-name="Group 274">
            <path id="Path_1597" data-name="Path 1597" d="M258.524,66.136a4.49,4.49,0,0,0-2.03,3.518c0,1.295.909,1.821,2.03,1.173a4.491,4.491,0,0,0,2.032-3.518C260.556,66.013,259.646,65.488,258.524,66.136Z" fill="#27debf"/>
            <path id="Path_1598" data-name="Path 1598" d="M264.959,62.416a4.488,4.488,0,0,0-2.031,3.518c0,1.295.909,1.82,2.031,1.173a4.49,4.49,0,0,0,2.031-3.518C266.99,62.293,266.081,61.768,264.959,62.416Z" fill="#27debf"/>
            <path id="Path_1599" data-name="Path 1599" d="M271.393,58.7a4.487,4.487,0,0,0-2.031,3.518c0,1.295.909,1.82,2.031,1.173a4.49,4.49,0,0,0,2.031-3.518C273.424,58.573,272.515,58.048,271.393,58.7Z" fill="#27debf"/>
          </g>
          <g id="Group_275" data-name="Group 275" opacity="0.1">
            <path id="Path_1600" data-name="Path 1600" d="M216.555,108.675a9.812,9.812,0,0,0-4.44,7.69c0,2.832,1.988,3.98,4.44,2.564a9.812,9.812,0,0,0,4.439-7.69C220.994,108.407,219.007,107.259,216.555,108.675Z"/>
            <path id="Path_1601" data-name="Path 1601" d="M196.245,120.4a9.812,9.812,0,0,0-4.439,7.69c0,2.832,1.987,3.98,4.439,2.564a9.812,9.812,0,0,0,4.44-7.69C200.685,120.133,198.7,118.985,196.245,120.4Z"/>
            <path id="Path_1602" data-name="Path 1602" d="M236.865,96.948a9.815,9.815,0,0,0-4.44,7.691c0,2.832,1.988,3.98,4.44,2.564a9.815,9.815,0,0,0,4.44-7.691C241.3,96.681,239.317,95.533,236.865,96.948Z"/>
            <path id="Path_1603" data-name="Path 1603" d="M257.176,85.2a9.815,9.815,0,0,0-4.44,7.691c0,2.832,1.988,3.98,4.44,2.564a9.812,9.812,0,0,0,4.439-7.69C261.615,84.932,259.628,83.784,257.176,85.2Z"/>
          </g>
        </g>
        <path id="Path_1604" data-name="Path 1604" d="M94.962,212.146l48.208-27.833c2.392-1.38,4.331-.261,4.331,2.5V233.1a9.572,9.572,0,0,1-4.331,7.5L94.963,268.432c-2.391,1.381-4.33.262-4.33-2.5V219.646A9.573,9.573,0,0,1,94.962,212.146Z" fill="#e0e0e0"/>
        <path id="Path_1605" data-name="Path 1605" d="M164.021,172.277l101.011-58.322c2.391-1.38,4.33-.261,4.33,2.5v46.286a9.573,9.573,0,0,1-4.33,7.5l-101.01,58.322c-2.391,1.381-4.33.262-4.33-2.5V179.777A9.571,9.571,0,0,1,164.021,172.277Z" fill="#e0e0e0"/>
        <g id="Group_277" data-name="Group 277">
          <path id="Path_1606" data-name="Path 1606" d="M94.963,282.5l76.642-44.25c2.391-1.38,4.33-.4,4.33,2.191a9.283,9.283,0,0,1-4.329,7.19l-76.643,44.25c-2.392,1.38-4.33.4-4.33-2.191A9.284,9.284,0,0,1,94.963,282.5Z" fill="#e0e0e0"/>
          <path id="Path_1607" data-name="Path 1607" d="M94.963,298.917,171.6,254.668c2.391-1.381,4.33-.4,4.33,2.19a9.283,9.283,0,0,1-4.329,7.19L94.963,308.3c-2.392,1.381-4.33.4-4.33-2.19A9.284,9.284,0,0,1,94.963,298.917Z" fill="#e0e0e0"/>
          <path id="Path_1608" data-name="Path 1608" d="M94.963,315.332l76.642-44.25c2.391-1.381,4.33-.4,4.33,2.19a9.28,9.28,0,0,1-4.329,7.19l-76.643,44.25c-2.392,1.381-4.33.4-4.33-2.19A9.281,9.281,0,0,1,94.963,315.332Z" fill="#e0e0e0"/>
        </g>
      </g>
    </g>
    <g id="Envelope">
      <g id="Group_281" data-name="Group 281">
        <g id="Letter">
          <g id="Group_280" data-name="Group 280">
            <g id="Group_279" data-name="Group 279">
              <path id="Path_1609" data-name="Path 1609" d="M131.253,259.673a5.741,5.741,0,0,1,2.6-4.5l132.911-76.736a5.742,5.742,0,0,1,5.2,0l2.928,1.691a5.741,5.741,0,0,1,2.6,4.5V286.506a5.765,5.765,0,0,1-2.6,4.5L141.975,367.742a5.77,5.77,0,0,1-5.2,0l-2.928-1.691a5.766,5.766,0,0,1-2.6-4.5Z" fill="#772f92"/>
            </g>
          </g>
          <path id="Path_1610" data-name="Path 1610" d="M132.011,257.114l7.374,4.252,137.336-79.3a5.372,5.372,0,0,0-1.831-1.942l-2.938-1.684a5.675,5.675,0,0,0-5.186,0L133.855,255.172A5.288,5.288,0,0,0,132.011,257.114Z" fill="#fff" opacity="0.4"/>
          <path id="Path_1611" data-name="Path 1611" d="M131.249,259.67V361.547a5.729,5.729,0,0,0,2.606,4.5l2.925,1.7a4.17,4.17,0,0,0,.713.319,5.611,5.611,0,0,0,1.069.246,6.363,6.363,0,0,0,2.052-.074c.172-.036.345-.086.5-.135a2.354,2.354,0,0,0,.308-.123,1.541,1.541,0,0,1-1.242-.024,1.8,1.8,0,0,1-.8-1.709V264.365a2.277,2.277,0,0,1,1.352-2.212l-1.352-.787-7.374-4.252A5.334,5.334,0,0,0,131.249,259.67Z" opacity="0.1"/>
          <path id="Path_1612" data-name="Path 1612" d="M139.385,261.366l61.552,23a10,10,0,0,0,11.873-3.909l9.884-15.143,54.519-83.526-52.548,84.1,52.818,20.671a5.406,5.406,0,0,1-.811,2.593l-52.155-23.028L213.031,284.5a10,10,0,0,1-12.524,3.847l-8.179-3.61-52.144,83.217a1.8,1.8,0,0,1-.8-1.709v-1.7l52.688-79.924Z" opacity="0.2"/>
        </g>
      </g>
    </g>
    <g id="Mobile_Screen" data-name="Mobile Screen">
      <g id="Group_288" data-name="Group 288">
        <path id="Path_1613" data-name="Path 1613" d="M249.052,144.4v233.9c0,2.761,1.939,3.88,4.33,2.5l105.079-60.666a9.573,9.573,0,0,0,4.33-7.5V78.739c0-2.761-1.939-3.88-4.33-2.5L253.382,136.9A9.573,9.573,0,0,0,249.052,144.4Z" fill="#fafafa" stroke="#e0e0e0" stroke-miterlimit="10" stroke-width="1.17"/>
        <path id="Path_1614" data-name="Path 1614" d="M255.142,148.764a2.375,2.375,0,0,1,1.125-1.823l11.97-6.908c.622-.359,1.126-.125,1.126.522a2.373,2.373,0,0,1-1.126,1.823l-11.97,6.908C255.646,149.645,255.142,149.411,255.142,148.764Z" fill="#455a64"/>
        <path id="Path_1615" data-name="Path 1615" d="M255.142,153.422a2.375,2.375,0,0,1,1.125-1.823l11.97-6.908c.622-.359,1.126-.125,1.126.522a2.373,2.373,0,0,1-1.126,1.823l-11.97,6.908C255.646,154.3,255.142,154.069,255.142,153.422Z" fill="#455a64"/>
        <path id="Path_1616" data-name="Path 1616" d="M255.142,158.08a2.375,2.375,0,0,1,1.125-1.823l11.97-6.908c.622-.359,1.126-.125,1.126.522a2.373,2.373,0,0,1-1.126,1.823l-11.97,6.908C255.646,158.961,255.142,158.727,255.142,158.08Z" fill="#455a64"/>
        <path id="Path_1617" data-name="Path 1617" d="M354.665,98.1V96.233a.121.121,0,0,0-.184-.119l-1.44.649a.171.171,0,0,1-.24-.111,3.153,3.153,0,0,0-.321-.714.4.4,0,0,1-.021-.349l.959-1.935a.216.216,0,0,0-.085-.281l-1.041-.6a.22.22,0,0,0-.287.067l-1.2,1.8a.4.4,0,0,1-.313.155,3.238,3.238,0,0,0-.779.08.171.171,0,0,1-.216-.153l-.158-1.571a.12.12,0,0,0-.195-.1l-1.617.934a.435.435,0,0,0-.193.3l-.162,1.8a.6.6,0,0,1-.168.336,9.688,9.688,0,0,0-.9.951.309.309,0,0,1-.318.09l-1.038-.362a.253.253,0,0,0-.292.108l-1.189,2.06a.253.253,0,0,0,.052.306l.833.718a.308.308,0,0,1,.081.32,9.774,9.774,0,0,0-.374,1.254.606.606,0,0,1-.207.314l-1.478,1.04a.437.437,0,0,0-.165.318V105.4a.121.121,0,0,0,.184.119l1.44-.649a.171.171,0,0,1,.24.111,3.152,3.152,0,0,0,.321.714.4.4,0,0,1,.021.349l-.959,1.935a.217.217,0,0,0,.085.282l1.041.6a.22.22,0,0,0,.287-.067l1.2-1.8a.4.4,0,0,1,.313-.155,3.239,3.239,0,0,0,.779-.08.172.172,0,0,1,.216.153l.158,1.571a.12.12,0,0,0,.2.1l1.617-.934a.435.435,0,0,0,.193-.3l.162-1.8a.6.6,0,0,1,.169-.336,9.8,9.8,0,0,0,.9-.951.309.309,0,0,1,.318-.09l1.038.362a.253.253,0,0,0,.292-.108l1.189-2.059a.254.254,0,0,0-.052-.307l-.833-.718a.308.308,0,0,1-.081-.32,9.779,9.779,0,0,0,.374-1.254.605.605,0,0,1,.207-.314l1.478-1.04A.437.437,0,0,0,354.665,98.1Zm-6.325,5.874c-1.51.871-2.733.165-2.733-1.578a6.04,6.04,0,0,1,2.733-4.734c1.509-.871,2.732-.165,2.732,1.578A6.042,6.042,0,0,1,348.34,103.975Z" fill="#37474f"/>
        <g id="Group_282" data-name="Group 282">
          <path id="Path_1618" data-name="Path 1618" d="M305.921,144.2c12.278-7.088,22.231-1.342,22.231,12.835s-9.953,31.416-22.231,38.5-22.23,1.342-22.23-12.835S293.644,151.289,305.921,144.2Z" fill="#fafafa" stroke="#707070" stroke-width="1"/>
          <path id="Path_1619" data-name="Path 1619" d="M305.765,155.358c3.983-2.3,7.213-.436,7.213,4.163a15.944,15.944,0,0,1-7.213,12.493c-3.983,2.3-7.212.435-7.212-4.165A15.94,15.94,0,0,1,305.765,155.358Z" fill="#772f92"/>
          <path id="Path_1620" data-name="Path 1620" d="M319.979,179.883c0-7.557-5.306-10.62-11.849-6.841l-4.091,2.361c-6.543,3.778-11.849,12.967-11.849,20.523v2.061a12.155,12.155,0,0,0,3.82.59,20.048,20.048,0,0,0,9.911-3.037,43.8,43.8,0,0,0,14.058-13.9Z" fill="#772f92"/>
        </g>
        <path id="Path_1621" data-name="Path 1621" d="M285.856,216.634l40.131-23.17c1.2-.69,2.165-.2,2.165,1.1a4.641,4.641,0,0,1-2.165,3.6l-40.131,23.17c-1.2.69-2.165.2-2.165-1.1A4.643,4.643,0,0,1,285.856,216.634Z" fill="#772f92"/>
        <path id="Path_1622" data-name="Path 1622" d="M281.549,233.207l48.745-28.173c1.2-.691,2.165-.2,2.165,1.1a4.644,4.644,0,0,1-2.165,3.6L281.549,237.9c-1.2.69-2.165.2-2.165-1.1A4.641,4.641,0,0,1,281.549,233.207Z" fill="#455a64"/>
        <path id="Path_1623" data-name="Path 1623" d="M331.593,227.744l13.65-7.881c.717-.414,1.3-.225,1.3.423a2.6,2.6,0,0,1-1.3,1.923l-13.65,7.881c-.717.414-1.3.225-1.3-.423A2.605,2.605,0,0,1,331.593,227.744Z" fill="#37474f"/>
        <g id="Group_283" data-name="Group 283">
          <path id="Path_1624" data-name="Path 1624" d="M263.4,262.43l20.042-11.572c1.2-.69,2.165-.131,2.165,1.25V265.87a4.784,4.784,0,0,1-2.165,3.75L263.4,281.191c-1.195.691-2.165.131-2.165-1.25V266.18A4.787,4.787,0,0,1,263.4,262.43Z" fill="#772f92"/>
          <path id="Path_1625" data-name="Path 1625" d="M266.6,264.353l13.649-7.881c.717-.414,1.3-.225,1.3.423a2.6,2.6,0,0,1-1.3,1.923L266.6,266.7c-.718.414-1.3.224-1.3-.423A2.6,2.6,0,0,1,266.6,264.353Z" fill="#fafafa"/>
          <path id="Path_1626" data-name="Path 1626" d="M265.3,271.294v4.035c0,.828.581,1.164,1.3.75L280.25,268.2a2.873,2.873,0,0,0,1.3-2.25v-4.036c0-.828-.582-1.164-1.3-.75l-13.65,7.882A2.869,2.869,0,0,0,265.3,271.294Z" fill="#fafafa"/>
        </g>
        <g id="Group_284" data-name="Group 284">
          <path id="Path_1627" data-name="Path 1627" d="M295.9,243.668,315.942,232.1c1.2-.69,2.165-.131,2.165,1.25v13.762a4.787,4.787,0,0,1-2.165,3.75L295.9,262.43c-1.2.69-2.165.131-2.165-1.25V247.418A4.787,4.787,0,0,1,295.9,243.668Z" fill="#772f92"/>
          <path id="Path_1628" data-name="Path 1628" d="M299.1,245.592l13.649-7.881c.717-.415,1.3-.225,1.3.422a2.6,2.6,0,0,1-1.3,1.923L299.1,247.937c-.718.414-1.3.225-1.3-.422A2.6,2.6,0,0,1,299.1,245.592Z" fill="#fafafa"/>
          <path id="Path_1629" data-name="Path 1629" d="M297.8,252.533v4.035c0,.828.581,1.164,1.3.75l13.649-7.881a2.873,2.873,0,0,0,1.3-2.25v-4.036c0-.828-.581-1.164-1.3-.75L299.1,250.282A2.872,2.872,0,0,0,297.8,252.533Z" fill="#fafafa"/>
        </g>
        <g id="Group_285" data-name="Group 285">
          <path id="Path_1630" data-name="Path 1630" d="M328.4,224.906l20.043-11.572c1.2-.69,2.165-.13,2.165,1.25v13.762a4.786,4.786,0,0,1-2.165,3.75L328.4,243.667c-1.2.691-2.166.131-2.166-1.25V228.656A4.786,4.786,0,0,1,328.4,224.906Z" fill="#772f92"/>
          <path id="Path_1631" data-name="Path 1631" d="M331.593,226.829l13.649-7.881c.718-.414,1.3-.225,1.3.423a2.6,2.6,0,0,1-1.3,1.923l-13.649,7.881c-.717.414-1.3.225-1.3-.423A2.605,2.605,0,0,1,331.593,226.829Z" fill="#fafafa"/>
          <path id="Path_1632" data-name="Path 1632" d="M330.294,233.77V237.8c0,.829.582,1.165,1.3.75l13.649-7.881a2.869,2.869,0,0,0,1.3-2.25v-4.035c0-.829-.582-1.164-1.3-.75l-13.65,7.881A2.873,2.873,0,0,0,330.294,233.77Z" fill="#fafafa"/>
        </g>
        <path id="Path_1633" data-name="Path 1633" d="M265.569,294.013l80.7-46.6c2.391-1.381,4.33-.4,4.33,2.19a9.287,9.287,0,0,1-4.33,7.191l-80.7,46.594c-2.391,1.381-4.33.4-4.33-2.19A9.285,9.285,0,0,1,265.569,294.013Z" fill="#e0e0e0"/>
        <path id="Path_1634" data-name="Path 1634" d="M265.569,312.774l80.7-46.594c2.391-1.381,4.33-.4,4.33,2.19a9.285,9.285,0,0,1-4.33,7.19l-80.7,46.6c-2.391,1.381-4.33.4-4.33-2.19A9.287,9.287,0,0,1,265.569,312.774Z" fill="#e0e0e0"/>
        <path id="Path_1635" data-name="Path 1635" d="M291.839,321.06,320,304.8c1.2-.69,2.165-.13,2.165,1.25v9.072A4.788,4.788,0,0,1,320,318.87l-28.165,16.261c-1.2.691-2.165.131-2.165-1.25V324.81A4.784,4.784,0,0,1,291.839,321.06Z" fill="#772f92"/>
        <g id="Group_286" data-name="Group 286">
          <path id="Path_1636" data-name="Path 1636" d="M267.332,295.391a4.489,4.489,0,0,0-2.031,3.518c0,1.3.91,1.82,2.031,1.173a4.49,4.49,0,0,0,2.031-3.518C269.363,295.268,268.454,294.743,267.332,295.391Z" fill="#fafafa"/>
          <path id="Path_1637" data-name="Path 1637" d="M273.766,291.67a4.492,4.492,0,0,0-2.03,3.519c0,1.3.909,1.82,2.03,1.173a4.49,4.49,0,0,0,2.031-3.519C275.8,291.548,274.888,291.023,273.766,291.67Z" fill="#fafafa"/>
          <path id="Path_1638" data-name="Path 1638" d="M280.2,287.95a4.49,4.49,0,0,0-2.031,3.518c0,1.3.909,1.821,2.031,1.173a4.489,4.489,0,0,0,2.031-3.518C282.232,287.828,281.322,287.3,280.2,287.95Z" fill="#fafafa"/>
          <path id="Path_1639" data-name="Path 1639" d="M286.635,284.23a4.49,4.49,0,0,0-2.031,3.518c0,1.3.909,1.821,2.031,1.173a4.487,4.487,0,0,0,2.031-3.518C288.666,284.108,287.757,283.583,286.635,284.23Z" fill="#fafafa"/>
          <path id="Path_1640" data-name="Path 1640" d="M293.069,280.51a4.492,4.492,0,0,0-2.031,3.518c0,1.3.91,1.821,2.031,1.173a4.488,4.488,0,0,0,2.031-3.518C295.1,280.387,294.191,279.862,293.069,280.51Z" fill="#fafafa"/>
          <path id="Path_1641" data-name="Path 1641" d="M299.5,276.79a4.488,4.488,0,0,0-2.031,3.518c0,1.295.909,1.821,2.031,1.173a4.491,4.491,0,0,0,2.03-3.518C301.534,276.667,300.625,276.142,299.5,276.79Z" fill="#fafafa"/>
          <path id="Path_1642" data-name="Path 1642" d="M305.938,273.07a4.487,4.487,0,0,0-2.031,3.518c0,1.295.909,1.82,2.031,1.173a4.492,4.492,0,0,0,2.031-3.518C307.969,272.947,307.059,272.422,305.938,273.07Z" fill="#fafafa"/>
        </g>
        <g id="Group_287" data-name="Group 287">
          <path id="Path_1643" data-name="Path 1643" d="M267.332,314.173a4.491,4.491,0,0,0-2.031,3.518c0,1.295.91,1.821,2.031,1.173a4.49,4.49,0,0,0,2.031-3.518C269.363,314.05,268.454,313.525,267.332,314.173Z" fill="#fafafa"/>
          <path id="Path_1644" data-name="Path 1644" d="M273.766,310.453a4.488,4.488,0,0,0-2.03,3.518c0,1.295.909,1.82,2.03,1.173a4.49,4.49,0,0,0,2.031-3.518C275.8,310.33,274.888,309.8,273.766,310.453Z" fill="#fafafa"/>
          <path id="Path_1645" data-name="Path 1645" d="M280.2,306.733a4.487,4.487,0,0,0-2.031,3.518c0,1.295.909,1.82,2.031,1.173a4.493,4.493,0,0,0,2.031-3.519C282.232,306.61,281.322,306.085,280.2,306.733Z" fill="#fafafa"/>
          <path id="Path_1646" data-name="Path 1646" d="M286.635,303.012a4.49,4.49,0,0,0-2.031,3.518c0,1.3.909,1.821,2.031,1.173a4.487,4.487,0,0,0,2.031-3.518C288.666,302.89,287.757,302.365,286.635,303.012Z" fill="#fafafa"/>
          <path id="Path_1647" data-name="Path 1647" d="M293.069,299.292a4.492,4.492,0,0,0-2.031,3.518c0,1.3.91,1.821,2.031,1.173a4.487,4.487,0,0,0,2.031-3.518C295.1,299.17,294.191,298.645,293.069,299.292Z" fill="#fafafa"/>
          <path id="Path_1648" data-name="Path 1648" d="M299.5,295.572a4.49,4.49,0,0,0-2.031,3.518c0,1.3.909,1.821,2.031,1.173a4.488,4.488,0,0,0,2.03-3.518C301.534,295.45,300.625,294.924,299.5,295.572Z" fill="#fafafa"/>
          <path id="Path_1649" data-name="Path 1649" d="M305.938,291.852a4.488,4.488,0,0,0-2.031,3.518c0,1.3.909,1.821,2.031,1.173a4.491,4.491,0,0,0,2.031-3.518C307.969,291.729,307.059,291.2,305.938,291.852Z" fill="#fafafa"/>
        </g>
      </g>
    </g>
    <g id="Key">
      <g id="Group_291" data-name="Group 291">
        <g id="Group_290" data-name="Group 290">
          <g id="Group_289" data-name="Group 289">
            <path id="Path_1650" data-name="Path 1650" d="M396.186,334.13a19.472,19.472,0,0,1-9.848-2.6C379.132,327.365,375,318.657,375,307.635c0-19.383,12.319-41.679,28.046-50.758,8.468-4.888,16.877-5.419,23.682-1.491,7.206,4.161,11.339,12.869,11.339,23.891,0,19.383-12.319,41.679-28.045,50.758A27.867,27.867,0,0,1,396.186,334.13Zm20.66-67.384a14.807,14.807,0,0,0-6.825,2.213c-11.422,6.594-21.07,24.3-21.07,38.676,0,5.816,1.631,10.231,4.363,11.808,3.111,1.8,7.432-.164,9.731-1.49,11.421-6.594,21.07-24.3,21.07-38.676,0-5.816-1.632-10.231-4.364-11.809A5.73,5.73,0,0,0,416.846,266.746Z" fill="#455a64"/>
          </g>
          <path id="Path_1651" data-name="Path 1651" d="M426.61,282.381c0-10.887-6.859-14.913-6.859-14.913h0c2.732,1.578,4.364,5.993,4.364,11.809,0,14.371-9.649,32.082-21.07,38.676-2.3,1.326-6.62,3.286-9.731,1.491,0,0,5.789,3.592,13.785-.771C418.676,312.358,426.61,296.751,426.61,282.381Z" fill="#37474f"/>
        </g>
        <path id="Path_1652" data-name="Path 1652" d="M415.608,146.294a7.214,7.214,0,0,0-14.427,0v.02h0V261.021h0a3.583,3.583,0,0,0,2.113,2.945,11.27,11.27,0,0,0,10.2,0,3.585,3.585,0,0,0,2.113-2.945h0V146.314h0Z" fill="#37474f"/>
        <path id="Path_1653" data-name="Path 1653" d="M409.846,171.927a9.206,9.206,0,0,0-4.166-7.215,2.891,2.891,0,0,0-2.98-.263l0-.006L384.9,174.7l-.43.256a.961.961,0,0,0-.174.1,5.641,5.641,0,0,0-.852.7,5.9,5.9,0,0,0,6.953,9.373c.113-.062.226-.134.338-.2l17.911-10.316,0,0A2.935,2.935,0,0,0,409.846,171.927Z" fill="#455a64"/>
        <path id="Path_1654" data-name="Path 1654" d="M409.846,200.652a9.207,9.207,0,0,0-4.166-7.215,2.893,2.893,0,0,0-2.98-.263l0-.006-20.86,11.98-.431.256a.961.961,0,0,0-.174.1,5.584,5.584,0,0,0-.851.7,5.9,5.9,0,0,0,6.952,9.373c.113-.062.226-.134.338-.195l20.973-12.041,0-.005A2.934,2.934,0,0,0,409.846,200.652Z" fill="#455a64"/>
      </g>
    </g>
  </g>
</svg>
